<?xml version="1.0" encoding="utf-8"?>
<!-- Generator: Adobe Illustrator 23.0.1, SVG Export Plug-In . SVG Version: 6.00 Build 0)  -->
<svg version="1.1" id="Layer_1" xmlns="http://www.w3.org/2000/svg" xmlns:xlink="http://www.w3.org/1999/xlink" x="0px" y="0px"
	 viewBox="0 0 120 60" style="enable-background:new 0 0 120 60;" xml:space="preserve">
<style type="text/css">
	.st0{clip-path:url(#SVGID_2_);}
	.st1{fill:#E5E5E4;}
	.st2{clip-path:url(#SVGID_4_);}
	.st3{fill:#FFFFFF;}
	.st4{clip-path:url(#SVGID_6_);}
	.st5{fill:#4A8CFF;}
	.st6{clip-path:url(#SVGID_8_);}
</style>
<g>
	<defs>
		<circle id="SVGID_1_" cx="-395.9" cy="30.1" r="261.9"/>
	</defs>
	<clipPath id="SVGID_2_">
		<use xlink:href="#SVGID_1_"  style="overflow:visible;"/>
	</clipPath>
	<g class="st0">
		<path class="st1" d="M-670.7-244.7h549.5v549.5h-549.5V-244.7z"/>
	</g>
</g>
<g>
	<defs>
		<circle id="SVGID_3_" cx="-395.9" cy="30.1" r="256.8"/>
	</defs>
	<clipPath id="SVGID_4_">
		<use xlink:href="#SVGID_3_"  style="overflow:visible;"/>
	</clipPath>
	<g class="st2">
		<path class="st3" d="M-665.5-239.5h539.3v539.3h-539.3V-239.5z"/>
	</g>
</g>
<g>
	<defs>
		<circle id="SVGID_5_" cx="-395.9" cy="30.1" r="236.2"/>
	</defs>
	<clipPath id="SVGID_6_">
		<use xlink:href="#SVGID_5_"  style="overflow:visible;"/>
	</clipPath>
	<g class="st4">
		<path class="st5" d="M-645-219h498.2v498.2H-645V-219z"/>
	</g>
</g>
<g>
	<defs>
		<path id="SVGID_7_" d="M-324-0.6l66.8-48.8c5.8-4.8,10.3-3.6,10.3,5.1v148.8c0,9.9-5.5,8.7-10.3,5.1L-324,60.9V-0.6z M-550-43.9
			V67.1c0.1,25.1,20.6,45.3,45.6,45.2h161.8c4.6,0,8.3-3.7,8.3-8.2V-6.9c-0.1-25.1-20.6-45.3-45.6-45.2h-161.8
			C-546.3-52.1-550-48.4-550-43.9z"/>
	</defs>
	<clipPath id="SVGID_8_">
		<use xlink:href="#SVGID_7_"  style="overflow:visible;"/>
	</clipPath>
	<g class="st6">
		<path class="st3" d="M-562.8-64.9h328.7v190h-328.7V-64.9z"/>
	</g>
</g>
</svg>
